<?xml version="1.0" encoding="UTF-8"?>
<svg enable-background="new 0 0 140 24" version="1.1" viewBox="0 0 140 24" xml:space="preserve" xmlns="http://www.w3.org/2000/svg">
<style type="text/css">
	.st0{fill:#FFFFFF;stroke:#FFFFFF;stroke-width:2;stroke-miterlimit:10;}
	.st1{fill:#ED1C24;}
		.st2{fill-rule:evenodd;clip-rule:evenodd;fill:#ED1C24;stroke:#FFFFFF;stroke-width:2;stroke-linecap:round;stroke-linejoin:round;stroke-miterlimit:3.8637;}
		.st3{fill-rule:evenodd;clip-rule:evenodd;fill:#FFFFFF;stroke:#FFFFFF;stroke-width:2;stroke-linecap:round;stroke-linejoin:round;stroke-miterlimit:3.8637;}
	.st4{fill-rule:evenodd;clip-rule:evenodd;fill:#FFFFFF;}
	.st5{fill-rule:evenodd;clip-rule:evenodd;fill:#ED1C24;}
</style>
		<path class="st0" d="m137.11 5.55c0 2.31-1.78 4.18-4.08 4.18-2.27 0-4.07-1.87-4.07-4.18 0-2.29 1.81-4.16 4.07-4.16 2.3 0 4.08 1.87 4.08 4.16zm-6.95 0.02c0 1.74 1.22 3.15 2.88 3.15s2.88-1.4 2.88-3.17c0-1.74-1.22-3.12-2.88-3.12s-2.88 1.38-2.88 3.14zm2.37 1.95h-1.04v-3.82c0.23-0.05 0.79-0.16 1.53-0.16 0.76 0 1.12 0.13 1.4 0.31 0.23 0.16 0.38 0.47 0.38 0.86 0 0.36-0.33 0.73-0.84 0.86v0.05c0.41 0.13 0.64 0.44 0.76 0.99 0.1 0.55 0.18 0.78 0.23 0.91h-1.15c-0.13-0.16-0.2-0.47-0.28-0.81-0.05-0.39-0.25-0.57-0.61-0.57h-0.38v1.38zm0.05-2.18h0.33c0.41 0 0.69-0.18 0.69-0.47 0-0.31-0.23-0.47-0.64-0.47-0.15 0-0.31 0.03-0.38 0.03v0.91z"/>
		<path class="st1" d="m136.81 5.55c0 2.14-1.65 3.87-3.77 3.87-2.1 0-3.77-1.73-3.77-3.87 0-2.12 1.67-3.85 3.77-3.85 2.12 0 3.77 1.73 3.77 3.85zm-6.44 0.02c0 1.61 1.13 2.91 2.66 2.91s2.66-1.3 2.66-2.93c0-1.61-1.13-2.89-2.66-2.89s-2.66 1.28-2.66 2.91zm2.19 1.81h-0.97v-3.54c0.21-0.05 0.73-0.14 1.41-0.14 0.71 0 1.04 0.12 1.3 0.29 0.21 0.14 0.35 0.43 0.35 0.79 0 0.34-0.31 0.67-0.78 0.79v0.05c0.38 0.12 0.59 0.41 0.71 0.91 0.09 0.51 0.17 0.72 0.21 0.84h-1.06c-0.12-0.14-0.19-0.43-0.26-0.75-0.05-0.36-0.24-0.53-0.57-0.53h-0.35v1.29zm0.05-2.02h0.31c0.38 0 0.64-0.17 0.64-0.43 0-0.29-0.21-0.43-0.59-0.43-0.14 0-0.28 0.02-0.35 0.02v0.84z"/>
		<path class="st2" d="m8.97 3.51s-2.73-0.42-3.39 2.07c-0.58 2.15-2.58 13.01-2.63 13.24s-0.65 3.8 3.22 3.8 22.25-0.08 22.52-0.06c0.92 0.08 3.3-0.64 2.84-3.15-0.41-2.28-2.34-12.54-2.48-13.09-0.15-0.55-0.43-2.82-3.22-2.81s-16.44 0-16.86 0z"/>
		<path class="st3" d="m8.42 4.06c-0.64 0-2 0.32-2.36 1.91-0.4 1.78-2.54 12.86-2.58 13.12-0.1 0.54 0.04 2.97 2.37 2.97h22.72c0.75 0 2.74-0.42 2.33-2.82-0.43-2.51-2.37-12.54-2.4-12.77s-0.61-2.4-2.59-2.41-16.88 0-17.49 0z"/>
		<path class="st2" d="m11.89 5.1s-3.27-0.01-3.48 0c-0.22 0.02-1.15 0.05-1.39 1.41-0.23 1.36-2.51 12.84-2.52 12.96-0.04 0.36 0.15 1.41 1.43 1.41 0 0 22.83 0.01 22.99 0s1.15-0.25 0.93-1.35c-0.23-1.09-2.39-12.56-2.43-12.84s-0.1-1.58-1.55-1.59h-13.98z"/>
		<path class="st3" d="m15.36 7.37c0-1.03 0.84-1.87 1.87-1.87s1.87 0.84 1.87 1.87-0.84 1.87-1.87 1.87c-1.04 0-1.87-0.84-1.87-1.87z"/>
		<rect class="st3" x="15.36" y="9.96" width="3.6" height="9.13"/>
		<path class="st3" d="m17.82 9.55c2.41-2.82 9.45-2.95 10.54 3.47 0.15 1.28-0.15 3.72-3.03 5.6-3.18 1.45-5.58 0.17-5.67 0.13-0.13-0.05-0.25-0.16 0.03-0.13 1.59 0.15 5.62-1.63 4.69-5.79-0.46-2.02-2.89-4.22-6.46-3.17-0.25 0.09-0.17-0.06-0.1-0.11z"/>
		<path class="st3" d="m16.64 9.57c-2.41-2.82-9.44-2.95-10.54 3.47-0.15 1.27 0.15 3.71 3.03 5.6 3.18 1.45 5.57 0.17 5.67 0.13 0.13-0.04 0.25-0.16-0.03-0.13-1.58 0.15-5.62-1.63-4.69-5.79 0.45-2.02 2.89-4.22 6.46-3.17 0.26 0.09 0.18-0.06 0.1-0.11z"/>
		<path class="st2" d="m47.62 18.89l-0.62-5.11c-0.04-0.39-0.08-0.79-0.12-1.18s-0.07-0.78-0.1-1.18c-0.06 0.37-0.14 0.76-0.24 1.18-0.11 0.42-0.24 0.86-0.39 1.33l-1.61 4.97h-3l-1.61-4.97c-0.16-0.47-0.29-0.91-0.39-1.33-0.1-0.41-0.18-0.81-0.24-1.18-0.03 0.4-0.06 0.79-0.1 1.18s-0.07 0.78-0.11 1.17l-0.62 5.12h-4.95l2.4-12.92h5.21l1 3.2c0.03 0.1 0.08 0.25 0.14 0.45 0.42 1.35 0.68 2.46 0.78 3.33h0.09c0.08-0.55 0.19-1.13 0.34-1.75s0.36-1.31 0.61-2.08l1.05-3.14h5.2l2.23 12.92h-4.95z"/>
		<path class="st2" d="m59.16 14.19h2.1l-0.43-1.46c-0.21-0.74-0.35-1.31-0.43-1.71s-0.12-0.78-0.14-1.13h-0.09c-0.02 0.35-0.07 0.73-0.14 1.13-0.08 0.4-0.22 0.97-0.43 1.71l-0.44 1.46zm-6.7 4.7l5.01-12.92h5.62l4.91 12.92h-5.43l-0.45-1.63h-3.81l-0.43 1.63h-5.42z"/>
		<polygon class="st2" points="68.66 18.89 68.66 10.2 65.85 10.2 65.85 5.97 76.52 5.97 76.52 10.2 73.71 10.2 73.71 18.89"/>
		<path class="st2" d="m76 17.79l1.61-3.62c0.72 0.46 1.37 0.8 1.93 1.02 0.57 0.21 1.1 0.32 1.59 0.32 0.34 0 0.62-0.06 0.82-0.18s0.3-0.28 0.3-0.49c0-0.36-0.5-0.63-1.49-0.82-0.32-0.07-0.57-0.12-0.75-0.15-1.05-0.24-1.85-0.65-2.41-1.25s-0.84-1.35-0.84-2.24c0-1.39 0.54-2.52 1.62-3.39s2.5-1.31 4.25-1.31c0.81 0 1.6 0.1 2.38 0.29s1.57 0.49 2.36 0.88l-1.53 3.38c-0.49-0.33-0.97-0.58-1.46-0.75s-0.96-0.26-1.42-0.26c-0.35 0-0.62 0.06-0.81 0.16-0.19 0.11-0.29 0.26-0.29 0.46 0 0.36 0.7 0.68 2.1 0.96 0.22 0.05 0.4 0.08 0.52 0.11 0.97 0.2 1.73 0.61 2.29 1.23s0.83 1.36 0.83 2.24c0 1.43-0.56 2.6-1.68 3.5-1.12 0.91-2.59 1.36-4.38 1.36-0.92 0-1.84-0.12-2.76-0.36-0.94-0.25-1.86-0.61-2.78-1.09z"/>
		<path class="st2" d="m88.26 12.98v-7.01h5.05v7.05c0 0.82 0.11 1.38 0.32 1.69s0.57 0.46 1.09 0.46c0.51 0 0.87-0.16 1.08-0.48 0.22-0.32 0.33-0.88 0.33-1.68v-7.04h5.05v7.01c0 0.92-0.06 1.67-0.2 2.27-0.13 0.59-0.34 1.09-0.63 1.49-0.56 0.81-1.33 1.42-2.3 1.85s-2.08 0.64-3.33 0.64-2.37-0.21-3.34-0.64-1.74-1.05-2.3-1.85c-0.28-0.39-0.49-0.89-0.61-1.47-0.15-0.59-0.21-1.35-0.21-2.29z"/>
		<path class="st2" d="m107.11 14.95c1.14-0.01 1.97-0.21 2.49-0.61s0.79-1.03 0.79-1.89c0-0.84-0.25-1.47-0.75-1.88s-1.27-0.62-2.31-0.62h-0.22v5zm-5.02 3.94v-12.92h4.09c1.3 0 2.41 0.07 3.32 0.2 0.92 0.13 1.67 0.34 2.24 0.61 1.21 0.59 2.15 1.37 2.8 2.34s0.97 2.08 0.97 3.32-0.32 2.34-0.97 3.3c-0.65 0.97-1.58 1.74-2.8 2.34-0.6 0.28-1.35 0.49-2.26 0.62s-2.14 0.19-3.67 0.19h-3.72z"/>
		<path class="st2" d="m120.92 14.19h2.1l-0.43-1.46c-0.21-0.74-0.36-1.31-0.43-1.71-0.08-0.4-0.12-0.78-0.15-1.13h-0.09c-0.02 0.35-0.07 0.73-0.14 1.13-0.08 0.4-0.22 0.97-0.43 1.71l-0.43 1.46zm-6.7 4.7l5.01-12.92h5.62l4.91 12.92h-5.43l-0.45-1.63h-3.81l-0.43 1.63h-5.42z"/>
		<path class="st4" d="m8.97 3.51s-2.73-0.42-3.39 2.07c-0.58 2.15-2.58 13.01-2.63 13.24s-0.65 3.8 3.22 3.8 22.25-0.08 22.52-0.06c0.92 0.08 3.3-0.64 2.84-3.15-0.41-2.28-2.34-12.54-2.48-13.09-0.15-0.55-0.43-2.82-3.22-2.81s-16.44 0-16.86 0z"/>
		<path class="st4" d="m8.42 4.06c-0.64 0-2 0.32-2.36 1.91-0.4 1.78-2.54 12.86-2.58 13.12-0.1 0.54 0.04 2.97 2.37 2.97h22.72c0.75 0 2.74-0.42 2.33-2.82-0.43-2.51-2.37-12.54-2.4-12.77s-0.61-2.4-2.59-2.41-16.88 0-17.49 0z"/>
		<path class="st4" d="m11.89 5.1s-3.27-0.01-3.48 0c-0.22 0.02-1.15 0.05-1.39 1.41-0.23 1.36-2.51 12.84-2.52 12.96-0.04 0.36 0.15 1.41 1.43 1.41 0 0 22.83 0.01 22.99 0s1.15-0.25 0.93-1.35c-0.23-1.09-2.39-12.56-2.43-12.84s-0.1-1.58-1.55-1.59h-13.98z"/>
		<path class="st4" d="m15.36 7.37c0-1.03 0.84-1.87 1.87-1.87s1.87 0.84 1.87 1.87-0.84 1.87-1.87 1.87c-1.04 0-1.87-0.84-1.87-1.87z"/>
		<rect class="st4" x="15.36" y="9.96" width="3.6" height="9.13"/>
		<path class="st4" d="m17.82 9.55c2.41-2.82 9.45-2.95 10.54 3.47 0.15 1.28-0.15 3.72-3.03 5.6-3.18 1.45-5.58 0.17-5.67 0.13-0.13-0.05-0.25-0.16 0.03-0.13 1.59 0.15 5.62-1.63 4.69-5.79-0.46-2.02-2.89-4.22-6.46-3.17-0.25 0.09-0.17-0.06-0.1-0.11z"/>
		<path class="st4" d="m16.64 9.57c-2.41-2.82-9.44-2.95-10.54 3.47-0.15 1.27 0.15 3.71 3.03 5.6 3.18 1.45 5.57 0.17 5.67 0.13 0.13-0.04 0.25-0.16-0.03-0.13-1.58 0.15-5.62-1.63-4.69-5.79 0.45-2.02 2.89-4.22 6.46-3.17 0.26 0.09 0.18-0.06 0.1-0.11z"/>
		<path class="st4" d="m47.62 18.89l-0.62-5.11c-0.04-0.39-0.08-0.79-0.12-1.18s-0.07-0.78-0.1-1.18c-0.06 0.37-0.14 0.76-0.24 1.18-0.11 0.42-0.24 0.86-0.39 1.33l-1.61 4.97h-3l-1.61-4.97c-0.16-0.47-0.29-0.91-0.39-1.33-0.1-0.41-0.18-0.81-0.24-1.18-0.03 0.4-0.06 0.79-0.1 1.18s-0.07 0.78-0.11 1.17l-0.62 5.12h-4.95l2.4-12.92h5.21l1 3.2c0.03 0.1 0.08 0.25 0.14 0.45 0.42 1.35 0.68 2.46 0.78 3.33h0.09c0.08-0.55 0.19-1.13 0.34-1.75s0.36-1.31 0.61-2.08l1.05-3.14h5.2l2.23 12.92h-4.95z"/>
		<path class="st4" d="m59.16 14.19h2.1l-0.43-1.46c-0.21-0.74-0.35-1.31-0.43-1.71s-0.12-0.78-0.14-1.13h-0.09c-0.02 0.35-0.07 0.73-0.14 1.13-0.08 0.4-0.22 0.97-0.43 1.71l-0.44 1.46zm-6.7 4.7l5.01-12.92h5.62l4.91 12.92h-5.43l-0.45-1.63h-3.81l-0.43 1.63h-5.42z"/>
		<polygon class="st4" points="68.66 18.89 68.66 10.2 65.85 10.2 65.85 5.97 76.52 5.97 76.52 10.2 73.71 10.2 73.71 18.89"/>
		<path class="st4" d="m76 17.79l1.61-3.62c0.72 0.46 1.37 0.8 1.93 1.02 0.57 0.21 1.1 0.32 1.59 0.32 0.34 0 0.62-0.06 0.82-0.18s0.3-0.28 0.3-0.49c0-0.36-0.5-0.63-1.49-0.82-0.32-0.07-0.57-0.12-0.75-0.15-1.05-0.24-1.85-0.65-2.41-1.25s-0.84-1.35-0.84-2.24c0-1.39 0.54-2.52 1.62-3.39s2.5-1.31 4.25-1.31c0.81 0 1.6 0.1 2.38 0.29s1.57 0.49 2.36 0.88l-1.53 3.38c-0.49-0.33-0.97-0.58-1.46-0.75s-0.96-0.26-1.42-0.26c-0.35 0-0.62 0.06-0.81 0.16-0.19 0.11-0.29 0.26-0.29 0.46 0 0.36 0.7 0.68 2.1 0.96 0.22 0.05 0.4 0.08 0.52 0.11 0.97 0.2 1.73 0.61 2.29 1.23s0.83 1.36 0.83 2.24c0 1.43-0.56 2.6-1.68 3.5-1.12 0.91-2.59 1.36-4.38 1.36-0.92 0-1.84-0.12-2.76-0.36-0.94-0.25-1.86-0.61-2.78-1.09z"/>
		<path class="st4" d="m88.26 12.98v-7.01h5.05v7.05c0 0.82 0.11 1.38 0.32 1.69s0.57 0.46 1.09 0.46c0.51 0 0.87-0.16 1.08-0.48 0.22-0.32 0.33-0.88 0.33-1.68v-7.04h5.05v7.01c0 0.92-0.06 1.67-0.2 2.27-0.13 0.59-0.34 1.09-0.63 1.49-0.56 0.81-1.33 1.42-2.3 1.85s-2.08 0.64-3.33 0.64-2.37-0.21-3.34-0.64-1.74-1.05-2.3-1.85c-0.28-0.39-0.49-0.89-0.61-1.47-0.15-0.59-0.21-1.35-0.21-2.29z"/>
		<path class="st4" d="m107.11 14.95c1.14-0.01 1.97-0.21 2.49-0.61s0.79-1.03 0.79-1.89c0-0.84-0.25-1.47-0.75-1.88s-1.27-0.62-2.31-0.62h-0.22v5zm-5.02 3.94v-12.92h4.09c1.3 0 2.41 0.07 3.32 0.2 0.92 0.13 1.67 0.34 2.24 0.61 1.21 0.59 2.15 1.37 2.8 2.34s0.97 2.08 0.97 3.32-0.32 2.34-0.97 3.3c-0.65 0.97-1.58 1.74-2.8 2.34-0.6 0.28-1.35 0.49-2.26 0.62s-2.14 0.19-3.67 0.19h-3.72z"/>
		<path class="st4" d="m120.92 14.19h2.1l-0.43-1.46c-0.21-0.74-0.36-1.31-0.43-1.71-0.08-0.4-0.12-0.78-0.15-1.13h-0.09c-0.02 0.35-0.07 0.73-0.14 1.13-0.08 0.4-0.22 0.97-0.43 1.71l-0.43 1.46zm-6.7 4.7l5.01-12.92h5.62l4.91 12.92h-5.43l-0.45-1.63h-3.81l-0.43 1.63h-5.42z"/>
		<path class="st2" d="m9.07 3.43s-2.73-0.42-3.39 2.06c-0.58 2.15-2.57 13.02-2.62 13.24-0.05 0.23-0.65 3.8 3.22 3.79 3.87 0 22.25-0.08 22.52-0.05 0.92 0.08 3.3-0.64 2.84-3.15-0.41-2.28-2.33-12.54-2.48-13.09s-0.43-2.82-3.22-2.81-16.45 0.01-16.87 0.01z"/>
		<path class="st3" d="m8.52 3.98c-0.64 0-2 0.32-2.36 1.91-0.4 1.78-2.54 12.86-2.58 13.12-0.1 0.54 0.04 2.97 2.37 2.97h22.71c0.75 0 2.74-0.42 2.33-2.82-0.43-2.51-2.37-12.54-2.4-12.77s-0.61-2.4-2.59-2.4c-1.97-0.02-16.87-0.01-17.48-0.01z"/>
		<path class="st2" d="m11.99 5.02s-3.27-0.01-3.48 0c-0.22 0.01-1.15 0.05-1.38 1.4-0.24 1.36-2.51 12.84-2.53 12.96-0.04 0.36 0.15 1.41 1.43 1.41 0 0 22.83 0.01 22.99 0s1.15-0.25 0.93-1.35c-0.23-1.09-2.38-12.56-2.43-12.84-0.04-0.28-0.1-1.58-1.55-1.59-1.45 0-13.98 0.01-13.98 0.01z"/>
		<path class="st3" d="m15.46 7.29c0-1.03 0.84-1.87 1.87-1.87s1.87 0.84 1.87 1.87-0.84 1.87-1.87 1.87c-1.03-0.01-1.87-0.84-1.87-1.87z"/>
		<rect class="st3" x="15.46" y="9.88" width="3.6" height="9.13"/>
		<path class="st3" d="m17.93 9.47c2.41-2.82 9.45-2.95 10.54 3.47 0.15 1.28-0.15 3.71-3.03 5.6-3.18 1.45-5.57 0.17-5.67 0.13-0.13-0.04-0.25-0.16 0.03-0.13 1.58 0.15 5.62-1.63 4.69-5.79-0.45-2.02-2.89-4.22-6.46-3.18-0.26 0.1-0.17-0.05-0.1-0.1z"/>
		<path class="st3" d="m16.75 9.49c-2.41-2.83-9.45-2.95-10.54 3.47-0.15 1.28 0.15 3.72 3.03 5.6 3.18 1.45 5.57 0.17 5.67 0.13 0.13-0.05 0.25-0.16-0.03-0.13-1.59 0.15-5.62-1.63-4.69-5.79 0.45-2.02 2.89-4.22 6.46-3.18 0.26 0.1 0.17-0.05 0.1-0.1z"/>
		<path class="st2" d="m47.72 18.81l-0.61-5.12c-0.04-0.39-0.08-0.79-0.12-1.18s-0.07-0.78-0.1-1.18c-0.06 0.37-0.14 0.76-0.24 1.18-0.11 0.42-0.24 0.86-0.39 1.33l-1.61 4.97h-3l-1.61-4.97c-0.16-0.47-0.29-0.91-0.39-1.33-0.1-0.41-0.18-0.81-0.24-1.18-0.03 0.4-0.06 0.8-0.1 1.18-0.03 0.39-0.07 0.78-0.11 1.17l-0.61 5.12h-4.95l2.4-12.92h5.21l1 3.2c0.03 0.1 0.08 0.25 0.15 0.45 0.42 1.35 0.68 2.46 0.78 3.33h0.09c0.08-0.55 0.19-1.13 0.35-1.75 0.15-0.62 0.36-1.31 0.62-2.08l1.05-3.14h5.2l2.22 12.92h-4.99z"/>
		<path class="st2" d="m59.27 14.11h2.1l-0.43-1.46c-0.21-0.74-0.36-1.31-0.43-1.71-0.08-0.4-0.12-0.78-0.14-1.13h-0.09c-0.02 0.35-0.07 0.73-0.14 1.13-0.08 0.4-0.22 0.97-0.43 1.71l-0.44 1.46zm-6.7 4.7l5.01-12.92h5.62l4.91 12.92h-5.43l-0.45-1.63h-3.81l-0.43 1.63h-5.42z"/>
		<polygon class="st2" points="68.76 18.81 68.76 10.12 65.95 10.12 65.95 5.89 76.62 5.89 76.62 10.12 73.81 10.12 73.81 18.81"/>
		<path class="st2" d="m76.11 17.71l1.61-3.62c0.72 0.46 1.37 0.8 1.94 1.02s1.1 0.32 1.59 0.32c0.35 0 0.62-0.06 0.82-0.18s0.3-0.28 0.3-0.49c0-0.36-0.5-0.63-1.49-0.82-0.32-0.06-0.57-0.11-0.75-0.15-1.05-0.23-1.86-0.65-2.41-1.25-0.56-0.6-0.84-1.35-0.84-2.24 0-1.39 0.54-2.52 1.62-3.39s2.5-1.31 4.25-1.31c0.81 0 1.6 0.1 2.38 0.29 0.78 0.2 1.57 0.49 2.36 0.88l-1.53 3.38c-0.49-0.33-0.97-0.58-1.46-0.75-0.5-0.17-0.98-0.26-1.43-0.26-0.35 0-0.63 0.06-0.81 0.16-0.19 0.11-0.29 0.26-0.29 0.45 0 0.37 0.7 0.69 2.1 0.96 0.22 0.05 0.4 0.08 0.52 0.11 0.97 0.2 1.73 0.61 2.28 1.22 0.56 0.62 0.84 1.37 0.84 2.24 0 1.43-0.56 2.6-1.69 3.5-1.12 0.91-2.58 1.36-4.38 1.36-0.92 0-1.84-0.12-2.76-0.36-0.93-0.23-1.85-0.59-2.77-1.07z"/>
		<path class="st2" d="m88.36 12.9v-7.01h5.05v7.05c0 0.82 0.11 1.38 0.32 1.69s0.57 0.46 1.08 0.46 0.87-0.16 1.08-0.48c0.22-0.32 0.33-0.88 0.33-1.68v-7.04h5.05v7.01c0 0.92-0.07 1.67-0.2 2.27-0.13 0.59-0.34 1.09-0.63 1.49-0.56 0.81-1.33 1.42-2.3 1.85s-2.08 0.64-3.33 0.64-2.37-0.21-3.34-0.64-1.74-1.05-2.3-1.85c-0.28-0.39-0.49-0.88-0.62-1.47-0.12-0.6-0.19-1.36-0.19-2.29z"/>
		<path class="st2" d="m107.21 14.87c1.14 0 1.97-0.21 2.49-0.61s0.79-1.04 0.79-1.89c0-0.84-0.25-1.47-0.75-1.88s-1.27-0.62-2.31-0.62h-0.22v5zm-5.01 3.94v-12.92h4.09c1.3 0 2.41 0.07 3.32 0.2 0.92 0.13 1.66 0.34 2.24 0.61 1.21 0.59 2.15 1.37 2.8 2.34s0.97 2.08 0.97 3.32-0.32 2.34-0.97 3.3-1.58 1.74-2.8 2.34c-0.6 0.28-1.35 0.49-2.26 0.62s-2.14 0.19-3.67 0.19h-3.72z"/>
		<path class="st2" d="m121.03 14.11h2.1l-0.43-1.46c-0.21-0.74-0.36-1.31-0.43-1.71-0.08-0.4-0.12-0.78-0.14-1.13h-0.09c-0.02 0.35-0.07 0.73-0.14 1.13-0.08 0.4-0.22 0.97-0.43 1.71l-0.44 1.46zm-6.7 4.7l5.01-12.92h5.62l4.91 12.92h-5.43l-0.45-1.63h-3.81l-0.43 1.63h-5.42z"/>
		<path class="st5" d="m9.07 3.43s-2.73-0.42-3.39 2.06c-0.58 2.15-2.57 13.02-2.62 13.24-0.05 0.23-0.65 3.8 3.22 3.79 3.87 0 22.25-0.08 22.52-0.05 0.92 0.08 3.3-0.64 2.84-3.15-0.41-2.28-2.33-12.54-2.48-13.09s-0.43-2.82-3.22-2.81-16.45 0.01-16.87 0.01z"/>
		<path class="st4" d="m8.52 3.98c-0.64 0-2 0.32-2.36 1.91-0.4 1.78-2.54 12.86-2.58 13.12-0.1 0.54 0.04 2.97 2.37 2.97h22.71c0.75 0 2.74-0.42 2.33-2.82-0.43-2.51-2.37-12.54-2.4-12.77s-0.61-2.4-2.59-2.4c-1.97-0.02-16.87-0.01-17.48-0.01z"/>
		<path class="st5" d="m11.99 5.02s-3.27-0.01-3.48 0c-0.22 0.01-1.15 0.05-1.38 1.4-0.24 1.36-2.51 12.84-2.53 12.96-0.04 0.36 0.15 1.41 1.43 1.41 0 0 22.83 0.01 22.99 0s1.15-0.25 0.93-1.35c-0.23-1.09-2.38-12.56-2.43-12.84-0.04-0.28-0.1-1.58-1.55-1.59-1.45 0-13.98 0.01-13.98 0.01z"/>
		<path class="st4" d="m15.46 7.29c0-1.03 0.84-1.87 1.87-1.87s1.87 0.84 1.87 1.87-0.84 1.87-1.87 1.87c-1.03-0.01-1.87-0.84-1.87-1.87z"/>
		<rect class="st4" x="15.46" y="9.88" width="3.6" height="9.13"/>
		<path class="st4" d="m17.93 9.47c2.41-2.82 9.45-2.95 10.54 3.47 0.15 1.28-0.15 3.71-3.03 5.6-3.18 1.45-5.57 0.17-5.67 0.13-0.13-0.04-0.25-0.16 0.03-0.13 1.58 0.15 5.62-1.63 4.69-5.79-0.45-2.02-2.89-4.22-6.46-3.18-0.26 0.1-0.17-0.05-0.1-0.1z"/>
		<path class="st4" d="m16.75 9.49c-2.41-2.83-9.45-2.95-10.54 3.47-0.15 1.28 0.15 3.72 3.03 5.6 3.18 1.45 5.57 0.17 5.67 0.13 0.13-0.05 0.25-0.16-0.03-0.13-1.59 0.15-5.62-1.63-4.69-5.79 0.45-2.02 2.89-4.22 6.46-3.18 0.26 0.1 0.17-0.05 0.1-0.1z"/>
		<path class="st5" d="m47.72 18.81l-0.61-5.12c-0.04-0.39-0.08-0.79-0.12-1.18s-0.07-0.78-0.1-1.18c-0.06 0.37-0.14 0.76-0.24 1.18-0.11 0.42-0.24 0.86-0.39 1.33l-1.61 4.97h-3l-1.61-4.97c-0.16-0.47-0.29-0.91-0.39-1.33-0.1-0.41-0.18-0.81-0.24-1.18-0.03 0.4-0.06 0.8-0.1 1.18-0.03 0.39-0.07 0.78-0.11 1.17l-0.61 5.12h-4.95l2.4-12.92h5.21l1 3.2c0.03 0.1 0.08 0.25 0.15 0.45 0.42 1.35 0.68 2.46 0.78 3.33h0.09c0.08-0.55 0.19-1.13 0.35-1.75 0.15-0.62 0.36-1.31 0.62-2.08l1.05-3.14h5.2l2.22 12.92h-4.99z"/>
		<path class="st5" d="m59.27 14.11h2.1l-0.43-1.46c-0.21-0.74-0.36-1.31-0.43-1.71-0.08-0.4-0.12-0.78-0.14-1.13h-0.09c-0.02 0.35-0.07 0.73-0.14 1.13-0.08 0.4-0.22 0.97-0.43 1.71l-0.44 1.46zm-6.7 4.7l5.01-12.92h5.62l4.91 12.92h-5.43l-0.45-1.63h-3.81l-0.43 1.63h-5.42z"/>
		<polygon class="st5" points="68.76 18.81 68.76 10.12 65.95 10.12 65.95 5.89 76.62 5.89 76.62 10.12 73.81 10.12 73.81 18.81"/>
		<path class="st5" d="m76.11 17.71l1.61-3.62c0.72 0.46 1.37 0.8 1.94 1.02s1.1 0.32 1.59 0.32c0.35 0 0.62-0.06 0.82-0.18s0.3-0.28 0.3-0.49c0-0.36-0.5-0.63-1.49-0.82-0.32-0.06-0.57-0.11-0.75-0.15-1.05-0.23-1.86-0.65-2.41-1.25-0.56-0.6-0.84-1.35-0.84-2.24 0-1.39 0.54-2.52 1.62-3.39s2.5-1.31 4.25-1.31c0.81 0 1.6 0.1 2.38 0.29 0.78 0.2 1.57 0.49 2.36 0.88l-1.53 3.38c-0.49-0.33-0.97-0.58-1.46-0.75-0.5-0.17-0.98-0.26-1.43-0.26-0.35 0-0.63 0.06-0.81 0.16-0.19 0.11-0.29 0.26-0.29 0.45 0 0.37 0.7 0.69 2.1 0.96 0.22 0.05 0.4 0.08 0.52 0.11 0.97 0.2 1.73 0.61 2.28 1.22 0.56 0.62 0.84 1.37 0.84 2.24 0 1.43-0.56 2.6-1.69 3.5-1.12 0.91-2.58 1.36-4.38 1.36-0.92 0-1.84-0.12-2.76-0.36-0.93-0.23-1.85-0.59-2.77-1.07z"/>
		<path class="st5" d="m88.36 12.9v-7.01h5.05v7.05c0 0.82 0.11 1.38 0.32 1.69s0.57 0.46 1.08 0.46 0.87-0.16 1.08-0.48c0.22-0.32 0.33-0.88 0.33-1.68v-7.04h5.05v7.01c0 0.92-0.07 1.67-0.2 2.27-0.13 0.59-0.34 1.09-0.63 1.49-0.56 0.81-1.33 1.42-2.3 1.85s-2.08 0.64-3.33 0.64-2.37-0.21-3.34-0.64-1.74-1.05-2.3-1.85c-0.28-0.39-0.49-0.88-0.62-1.47-0.12-0.6-0.19-1.36-0.19-2.29z"/>
		<path class="st5" d="m107.21 14.87c1.14 0 1.97-0.21 2.49-0.61s0.79-1.04 0.79-1.89c0-0.84-0.25-1.47-0.75-1.88s-1.27-0.62-2.31-0.62h-0.22v5zm-5.01 3.94v-12.92h4.09c1.3 0 2.41 0.07 3.32 0.2 0.92 0.13 1.66 0.34 2.24 0.61 1.21 0.59 2.15 1.37 2.8 2.34s0.97 2.08 0.97 3.32-0.32 2.34-0.97 3.3-1.58 1.74-2.8 2.34c-0.6 0.28-1.35 0.49-2.26 0.62s-2.14 0.19-3.67 0.19h-3.72z"/>
		<path class="st5" d="m121.03 14.11h2.1l-0.43-1.46c-0.21-0.74-0.36-1.31-0.43-1.71-0.08-0.4-0.12-0.78-0.14-1.13h-0.09c-0.02 0.35-0.07 0.73-0.14 1.13-0.08 0.4-0.22 0.97-0.43 1.71l-0.44 1.46zm-6.7 4.7l5.01-12.92h5.62l4.91 12.92h-5.43l-0.45-1.63h-3.81l-0.43 1.63h-5.42z"/>
</svg>
